<svg xmlns="http://www.w3.org/2000/svg" width="372" height="338" viewBox="0 0 372 338">
  <defs>
    <style>
      .cls-1 {
        fill: #8337e6;
      }

      .cls-1, .cls-2 {
        fill-rule: evenodd;
      }

      .cls-2 {
        fill: #06d260;
      }
    </style>
  </defs>
  <path id="_404" data-name="404" class="cls-1" d="M675.033,567.816V536.06h-7.072l-22.3,32.1v6.46h20.808V584h8.568v-9.384h6.732v-6.8h-6.732Zm-8.568-18.292v18.292H653.817ZM704,584.612q8.5,0,12.988-6.324T721.476,560q0-11.9-4.488-18.156T704,535.584q-8.5,0-12.988,6.256T686.524,560q0,12.036,4.488,18.326T704,584.612h0Zm0-6.868a7.034,7.034,0,0,1-6.732-4.25q-2.107-4.25-2.108-13.5,0-9.18,2.108-13.362a7.509,7.509,0,0,1,13.464,0q2.107,4.182,2.108,13.362,0,9.249-2.108,13.5a7.034,7.034,0,0,1-6.732,4.25h0Zm52.632-9.928V536.06H749.56l-22.3,32.1v6.46h20.808V584h8.568v-9.384h6.732v-6.8h-6.732Zm-8.568-18.292v18.292H735.416Z" transform="translate(-490 -321)"/>
  <g id="doc">
    <path class="cls-1" d="M611,635.281v4.744L632.355,659h3.559l16.608-14.232h3.559L673.875,659h2.373l16.608-14.232h2.373L713.023,659H715.4l17.8-14.232h2.372l16.609,13.046h2.372l17.794-14.232h2.373L792.5,659h3.559V441.968l-52.2-52.182h-51.01V396.9h46.265v51h49.825V643.582L774.71,634.1h-2.373l-17.794,14.231h-2.372L735.562,634.1H733.19L715.4,647.14h-2.372L696.415,634.1h-2.373l-17.794,14.231h-2.373L657.267,634.1H654.9L637.1,648.326h-3.559l-14.235-13.045H611Z" transform="translate(-490 -321)"/>
    <path class="cls-1" d="M666.757,390.972H611v64.042h8.3v-55.74h47.451v-8.3Z" transform="translate(-490 -321)"/>
    <path id="Shape_4_copy" data-name="Shape 4 copy" class="cls-1" d="M619.306,479.919H611V635.281h8.3V492.406h0V479.919Z" transform="translate(-490 -321)"/>
  </g>
  <g id="glass">
    <path id="Forma_1" data-name="Forma 1" class="cls-2" d="M562.109,383.583a3.961,3.961,0,1,1-3.962,3.961A3.963,3.963,0,0,1,562.109,383.583ZM494.643,496.754l52.885-52.87a78.5,78.5,0,0,1-13.153-43.665,79.3,79.3,0,1,1,35.563,66.069L555.32,480.9l-0.006.006-38.26,38.25A15.844,15.844,0,1,1,494.643,496.754ZM571.8,457.94h0a71.365,71.365,0,1,0-15.925-15.921A71.648,71.648,0,0,0,571.8,457.94Zm-8.313,3.591a79.486,79.486,0,0,1-11.2-11.2l-11.241,11.238a96.193,96.193,0,0,0,11.2,11.2Zm-63.243,52.026a7.921,7.921,0,0,0,11.2,0l35.181-35.172a104.112,104.112,0,0,1-11.2-11.2l-35.182,35.172A7.915,7.915,0,0,0,500.246,513.557Zm61.045-143.016a47.616,47.616,0,0,1,44.4-30.528,3.961,3.961,0,1,1,0,7.921,39.892,39.892,0,0,0-37,25.448A3.961,3.961,0,0,1,561.291,370.541Z" transform="translate(-490 -321)"/>
  </g>
  <g id="stars">
    <path class="cls-1" d="M726.02,327.478l8.018-2.161,9.88,36.643-8.017,2.161Z" transform="translate(-490 -321)"/>
    <path id="Rectangle_2_copy" data-name="Rectangle 2 copy" class="cls-1" d="M830.888,349.727l5.865,5.877-26.876,26.8-5.865-5.877Z" transform="translate(-490 -321)"/>
    <path id="Rectangle_2_copy_2" data-name="Rectangle 2 copy 2" class="cls-1" d="M861.993,453l-2.455,8.058-36.874-11.137,2.455-8.059Z" transform="translate(-490 -321)"/>
    <path class="cls-2" d="M777.677,340.444l8.009,2.193-5.639,20.589-8.009-2.192Z" transform="translate(-490 -321)"/>
    <path id="Rectangle_3_copy" data-name="Rectangle 3 copy" class="cls-2" d="M846.276,402.236l2.131,8.366-20.7,4.685-2.131-8.366Z" transform="translate(-490 -321)"/>
  </g>
</svg>
